<svg xmlns="http://www.w3.org/2000/svg" width="1477.109" height="1477.082" viewBox="0 0 1477.109 1477.082"><g transform="translate(702.732 -344.525) rotate(42)"><g transform="translate(0 0)"><path d="M557.5,544.206a3.3,3.3,0,0,0-4.665.269h0a3.3,3.3,0,0,0,.247,4.688l55.355,49.86a3.342,3.342,0,0,0,4.688-.247h0a3.342,3.342,0,0,0-.247-4.688Z" transform="translate(686.061 675.359)" fill="#fff"/><rect width="6.729" height="81.126" rx="1.48" transform="translate(201.301 290.151) rotate(-47.96)" fill="#fff"/><path d="M636.886,563.847l-60.245-43.759a3.364,3.364,0,0,0-4.665.74h0a3.319,3.319,0,0,0,.718,4.643l60.245,43.759a3.319,3.319,0,0,0,4.643-.74h0a3.342,3.342,0,0,0-.7-4.643Z" transform="translate(710.121 645.646)" fill="#fff"/><path d="M70.161,160.432l60.245,43.782a3.342,3.342,0,0,0,4.665-.763h0a3.32,3.32,0,0,0-.718-4.643L74.131,154.982a3.319,3.319,0,0,0-4.643.74h0a3.342,3.342,0,0,0,.673,4.71Z" transform="translate(85.52 191.841)" fill="#fff"/><path d="M51.969,194.084l64.439,37.21a6.729,6.729,0,0,0,9.263-2.49,6.527,6.527,0,0,0,.7-5.091,6.729,6.729,0,0,0-3.118-4.082L58.7,182.488a6.729,6.729,0,0,0-9.129,2.445h0A6.729,6.729,0,0,0,51.969,194.084Z" transform="translate(60.491 225.724)" fill="#fff"/><path d="M661.117,530.26l-64.439-37.21a6.733,6.733,0,0,0-6.729,11.663L654.388,541.9a6.527,6.527,0,0,0,3.32.9,6.725,6.725,0,0,0,1.75-.224,6.594,6.594,0,0,0,4.06-3.118l-2.916-1.682h0l2.961,1.615a6.729,6.729,0,0,0-2.445-9.129Z" transform="translate(729.111 611.722)" fill="#fff"/><path d="M36.619,220.037l67.938,30.257a3.32,3.32,0,0,0,4.486-1.7h0a3.3,3.3,0,0,0-1.682-4.486L39.356,213.891a3.32,3.32,0,0,0-4.486,1.682h0a3.32,3.32,0,0,0,1.749,4.463Z" transform="translate(42.959 265.443)" fill="#fff"/><path d="M674.782,496.793l-67.915-30.234a3.32,3.32,0,0,0-4.486,1.7h0a3.319,3.319,0,0,0,1.682,4.486l67.916,30.234a3.32,3.32,0,0,0,4.486-1.682h0a3.319,3.319,0,0,0-1.682-4.508Z" transform="translate(748.305 579.494)" fill="#fff"/><path d="M24.615,252.108l70.674,22.967a3.342,3.342,0,0,0,4.194-2.243h0a3.319,3.319,0,0,0-2.243-4.172L26.678,245.716a3.3,3.3,0,0,0-4.172,2.243h0a3.32,3.32,0,0,0,2.108,4.149Z" transform="translate(27.78 305.212)" fill="#fff"/><path d="M688.188,460.637l-70.674-22.945a3.32,3.32,0,0,0-4.194,2.131h0a3.342,3.342,0,0,0,2.131,4.194l70.674,22.968a3.342,3.342,0,0,0,4.194-2.131h0a3.342,3.342,0,0,0-2.131-4.217Z" transform="translate(762.106 543.809)" fill="#fff"/><path d="M697.833,423.313,625.14,407.859a3.342,3.342,0,0,0-3.948,2.579h0a3.342,3.342,0,0,0,2.557,3.97l72.715,15.454a3.319,3.319,0,0,0,3.948-2.557h0a3.319,3.319,0,0,0-2.579-3.992Z" transform="translate(771.997 506.848)" fill="#fff"/><path d="M16.108,285.246,88.8,300.7a3.342,3.342,0,0,0,3.948-2.557h0a3.3,3.3,0,0,0-2.534-3.948L17.5,278.741a3.319,3.319,0,0,0-3.948,2.557h0a3.32,3.32,0,0,0,2.557,3.948Z" transform="translate(16.75 346.36)" fill="#fff"/><path d="M11.1,319.127l74.016,7.783a3.342,3.342,0,0,0,3.634-2.961h0a3.342,3.342,0,0,0-2.961-3.678l-74.016-7.76a3.32,3.32,0,0,0-3.656,2.938h0a3.32,3.32,0,0,0,2.983,3.678Z" transform="translate(10.068 388.401)" fill="#fff"/><path d="M703.584,385.192l-74.016-7.783a3.342,3.342,0,0,0-3.656,2.938h0a3.319,3.319,0,0,0,2.961,3.678l74.016,7.783a3.342,3.342,0,0,0,3.656-2.961h0a3.3,3.3,0,0,0-2.961-3.656Z" transform="translate(777.931 469.068)" fill="#fff"/><path d="M96.446,351.885a6.325,6.325,0,0,0-2.243-4.8,7.626,7.626,0,0,0-5.181-1.951H7.334A7.043,7.043,0,0,0,0,351.862H0a7.043,7.043,0,0,0,7.334,6.729H89.111a7.065,7.065,0,0,0,7.334-6.706Z" transform="translate(0 428.965)" fill="#fff"/><path d="M716.149,345.169H634.394a7.065,7.065,0,0,0-7.334,6.729,6.325,6.325,0,0,0,2.243,4.733,7.559,7.559,0,0,0,5.181,1.974h81.754a7.626,7.626,0,0,0,5.2-1.974,6.37,6.37,0,0,0,2.243-4.8,7.065,7.065,0,0,0-7.536-6.661Z" transform="translate(779.384 428.997)" fill="#fff"/><path d="M88.769,380.4h0a3.319,3.319,0,0,0-3.634-2.961l-74.016,7.783a3.319,3.319,0,0,0-2.938,3.656h0a3.32,3.32,0,0,0,3.656,2.961l74.016-7.783A3.342,3.342,0,0,0,88.769,380.4Z" transform="translate(10.144 469.105)" fill="#fff"/><path d="M625.881,323.919h0a3.3,3.3,0,0,0,3.634,2.961l74.016-7.783a3.319,3.319,0,0,0,2.96-3.656h0a3.32,3.32,0,0,0-3.656-2.961l-74.016,7.783a3.319,3.319,0,0,0-2.938,3.656Z" transform="translate(777.895 388.364)" fill="#fff"/><path d="M621.165,298.135h0a3.3,3.3,0,0,0,3.925,2.557l72.76-15.476a3.32,3.32,0,0,0,2.557-3.948h0a3.319,3.319,0,0,0-3.947-2.557L623.7,294.165a3.32,3.32,0,0,0-2.535,3.97Z" transform="translate(771.957 346.323)" fill="#fff"/><path d="M92.8,410.458h0a3.3,3.3,0,0,0-3.925-2.557l-72.76,15.454a3.32,3.32,0,0,0-2.557,3.948h0a3.32,3.32,0,0,0,3.948,2.557l72.76-15.476a3.32,3.32,0,0,0,2.535-3.925Z" transform="translate(16.763 506.896)" fill="#fff"/><path d="M3.32,0H77.672a3.32,3.32,0,0,1,3.32,3.32h0a3.32,3.32,0,0,1-3.32,3.32H3.32A3.319,3.319,0,0,1,0,3.32H0A3.342,3.342,0,0,1,3.32,0Z" transform="matrix(0.951, -0.31, 0.31, 0.951, 49.157, 1005.576)" fill="#fff"/><path d="M613.312,272.878h0a3.319,3.319,0,0,0,4.172,2.243l70.7-22.967a3.319,3.319,0,0,0,2.131-4.194h0a3.319,3.319,0,0,0-4.194-2.243l-70.674,22.967a3.32,3.32,0,0,0-2.131,4.194Z" transform="translate(762.091 305.212)" fill="#fff"/><path d="M602.409,248.528h0a3.342,3.342,0,0,0,4.486,1.727l67.826-30.19a3.387,3.387,0,0,0,1.7-4.486h0a3.342,3.342,0,0,0-4.486-1.7l-67.848,30.235a3.364,3.364,0,0,0-1.682,4.419Z" transform="translate(748.389 265.437)" fill="#fff"/><path d="M108.9,468.283h0a3.319,3.319,0,0,0-4.486-1.682L36.589,496.746a3.342,3.342,0,0,0-1.682,4.486h0a3.319,3.319,0,0,0,4.486,1.682l67.893-30.235a3.342,3.342,0,0,0,1.615-4.4Z" transform="translate(42.99 579.541)" fill="#fff"/><path d="M587.56,228.856a6.672,6.672,0,0,0,9.129,2.445l64.394-37.187a6.729,6.729,0,0,0,2.4-9.2h0a6.625,6.625,0,0,0-9.263-2.355l-64.26,37.1a6.729,6.729,0,0,0-2.4,9.2Z" transform="translate(729.145 225.671)" fill="#fff"/><path d="M125.505,495.522a6.729,6.729,0,0,0-9.129-2.467L51.982,530.242a6.729,6.729,0,0,0-2.445,9.129h0a6.729,6.729,0,0,0,9.129,2.445l64.394-37.165A6.729,6.729,0,0,0,125.505,495.522Z" transform="translate(60.477 611.74)" fill="#fff"/><path d="M572.007,203.411h0a3.364,3.364,0,0,0,4.665.718l60.133-43.692a3.342,3.342,0,0,0,.74-4.688h0a3.342,3.342,0,0,0-4.688-.74l-60.065,43.67a3.364,3.364,0,0,0-.785,4.733Z" transform="translate(710.157 191.859)" fill="#fff"/><path d="M135.02,520.857h0a3.342,3.342,0,0,0-4.643-.74l-60.2,43.737a3.342,3.342,0,0,0-.74,4.643h0a3.3,3.3,0,0,0,4.62.74l60.222-43.715a3.319,3.319,0,0,0,.74-4.665Z" transform="translate(85.526 645.685)" fill="#fff"/><path d="M151.542,544.512h0a3.319,3.319,0,0,0-4.71-.269L91.454,594.1a3.3,3.3,0,0,0-.247,4.688h0a3.342,3.342,0,0,0,4.688.246l55.4-49.793a3.3,3.3,0,0,0,.247-4.733Z" transform="translate(112.293 675.389)" fill="#fff"/><path d="M552.8,183.107h0a3.364,3.364,0,0,0,4.777.269l55.266-49.77a3.342,3.342,0,0,0,.247-4.755h0a3.364,3.364,0,0,0-4.732-.247l-55.288,49.77a3.387,3.387,0,0,0-.269,4.733Z" transform="translate(686.05 158.781)" fill="#fff"/><rect width="81.126" height="6.729" rx="1.48" transform="translate(255.601 1326.455) rotate(-48)" fill="#fff"/><path d="M531.336,164.745a3.364,3.364,0,0,0,4.733-.247l49.77-55.378a3.387,3.387,0,0,0-.247-4.755,3.342,3.342,0,0,0-4.755.247L531.045,159.9a3.365,3.365,0,0,0,.269,4.755Z" transform="translate(658.981 128.629)" fill="#fff"/><path d="M507.938,148.409h0a3.454,3.454,0,0,0,4.486-.92l43.692-60.155a3.319,3.319,0,0,0-.987-4.867h0a3.409,3.409,0,0,0-4.486.9l-43.714,60.155a3.3,3.3,0,0,0,1.009,4.89Z" transform="translate(629.222 101.901)" fill="#fff"/><path d="M190.277,585.152h0a3.32,3.32,0,0,0-4.643.74l-43.827,60.267a3.342,3.342,0,0,0,.74,4.643h0a3.342,3.342,0,0,0,4.643-.74l43.759-60.245a3.3,3.3,0,0,0-.673-4.665Z" transform="translate(175.476 726.507)" fill="#fff"/><path d="M482.315,138.715a6.729,6.729,0,0,0,3.409.942,6.527,6.527,0,0,0,1.727-.224,6.729,6.729,0,0,0,4.1-3.14l37.165-64.372a6.729,6.729,0,0,0-2.467-9.2h0a6.729,6.729,0,0,0-9.173,2.467l-37.165,64.3a6.729,6.729,0,0,0,2.4,9.218Z" transform="translate(595.34 76.852)" fill="#fff"/><path d="M215.671,600.691a6.729,6.729,0,0,0-9.173,2.422l-37.21,64.439a6.729,6.729,0,0,0,2.445,9.129l1.682-2.916-1.615,2.961a6.551,6.551,0,0,0,3.342.9,6.409,6.409,0,0,0,1.727-.224,6.728,6.728,0,0,0,4.082-3.118l37.21-64.439a6.729,6.729,0,0,0-2.49-9.151Z" transform="translate(209.317 745.486)" fill="#fff"/><path d="M455.137,122.1h0a3.364,3.364,0,0,0,4.486-1.7l30.19-67.848a3.364,3.364,0,0,0-1.7-4.486h0a3.387,3.387,0,0,0-4.486,1.7l-30.257,67.893a3.364,3.364,0,0,0,1.772,4.441Z" transform="translate(563.148 59.357)" fill="#fff"/><path d="M235.4,615.592h0a3.364,3.364,0,0,0-4.486,1.682l-30.235,67.938a3.32,3.32,0,0,0,1.682,4.374h0a3.342,3.342,0,0,0,4.486-1.682l30.235-67.938a3.275,3.275,0,0,0-1.682-4.374Z" transform="translate(249.072 764.744)" fill="#fff"/><path d="M259.724,626.481h0a3.365,3.365,0,0,0-4.194,2.243L232.563,699.4a3.32,3.32,0,0,0,2.243,4.172h0A3.319,3.319,0,0,0,239,701.327l22.967-70.674a3.342,3.342,0,0,0-2.243-4.172Z" transform="translate(288.871 778.484)" fill="#fff"/><path d="M426.7,112.717h0a3.364,3.364,0,0,0,4.217-2.243l22.945-70.585a3.387,3.387,0,0,0-2.243-4.239h0a3.342,3.342,0,0,0-4.239,2.243l-22.855,70.517a3.387,3.387,0,0,0,2.176,4.306Z" transform="translate(527.434 44.108)" fill="#fff"/><path d="M397.268,105.928h0a3.364,3.364,0,0,0,4.015-2.579l15.431-72.626a3.364,3.364,0,0,0-2.579-3.992h0a3.364,3.364,0,0,0-3.992,2.6l-15.454,72.626a3.365,3.365,0,0,0,2.579,3.97Z" transform="translate(490.479 33.133)" fill="#fff"/><path d="M284.985,634.364h0a3.319,3.319,0,0,0-3.97,2.557l-15.454,72.693a3.319,3.319,0,0,0,2.557,3.948h0A3.319,3.319,0,0,0,272.066,711l15.454-72.716a3.342,3.342,0,0,0-2.535-3.925Z" transform="translate(329.978 788.364)" fill="#fff"/><path d="M310.792,639.1h0a3.342,3.342,0,0,0-3.678,2.961l-7.783,74.016a3.32,3.32,0,0,0,2.961,3.656h0a3.364,3.364,0,0,0,3.656-2.96l7.76-74.017a3.3,3.3,0,0,0-2.916-3.656Z" transform="translate(372.02 794.326)" fill="#fff"/><path d="M367.2,101.836h0a3.387,3.387,0,0,0,3.723-3.006l7.761-73.77a3.364,3.364,0,0,0-2.983-3.7h0a3.364,3.364,0,0,0-3.7,3.006l-7.761,73.882a3.342,3.342,0,0,0,2.96,3.589Z" transform="translate(452.702 26.526)" fill="#fff"/><path d="M338.729,0h0A6.729,6.729,0,0,0,332,6.729V119.3a6.729,6.729,0,0,0,6.729,6.729h0a6.572,6.572,0,0,0,4.71-1.974,6.729,6.729,0,0,0,1.951-4.71V6.729A6.729,6.729,0,0,0,338.728,0Z" transform="translate(412.649 0)" fill="#ff669f"/><path d="M338.708,641.23h0a6.325,6.325,0,0,0-4.71,2.243,7.6,7.6,0,0,0-1.974,5.181v81.777a7.043,7.043,0,0,0,6.729,7.334h0a7.02,7.02,0,0,0,6.729-7.334V648.565a7.043,7.043,0,0,0-6.774-7.335Z" transform="translate(412.67 796.997)" fill="#fff"/><path d="M370.862,642a3.3,3.3,0,0,0-3.633-2.938h0a3.342,3.342,0,0,0-2.961,3.634l7.783,74.016a3.365,3.365,0,0,0,3.656,2.961h0a3.32,3.32,0,0,0,2.961-3.656Z" transform="translate(452.737 794.277)" fill="#fff"/><path d="M306.019,24.322a3.382,3.382,0,1,0-6.729.7l7.76,74.016a3.382,3.382,0,1,0,6.729-.7Z" transform="translate(371.971 26.458)" fill="#fff"/><path d="M401.224,636.889a3.342,3.342,0,0,0-3.97-2.557h0a3.342,3.342,0,0,0-2.535,3.948l15.454,72.76a3.32,3.32,0,0,0,3.948,2.557h0a3.342,3.342,0,0,0,2.579-3.948Z" transform="translate(490.515 788.329)" fill="#fff"/><path d="M272.138,29.426a3.364,3.364,0,1,0-6.572,1.391L281,103.487a3.37,3.37,0,1,0,6.594-1.391Z" transform="translate(329.929 33.017)" fill="#fff"/><path d="M430.864,628.669a3.319,3.319,0,0,0-4.194-2.243h0a3.342,3.342,0,0,0-2.131,4.194l22.967,70.675a3.342,3.342,0,0,0,4.194,2.243h0a3.3,3.3,0,0,0,2.131-4.172Z" transform="translate(527.468 778.403)" fill="#fff"/><path d="M255.477,110.553a3.364,3.364,0,0,0,4.262,2.243h0a3.364,3.364,0,0,0,2.131-4.239L238.924,37.771a3.364,3.364,0,0,0-6.392,2.086Z" transform="translate(288.857 44.208)" fill="#fff"/><path d="M230.906,120.343a3.364,3.364,0,1,0,6.146-2.737L206.885,49.781a3.387,3.387,0,0,0-4.486-1.7h0a3.342,3.342,0,0,0-1.682,4.486Z" transform="translate(249.078 59.382)" fill="#fff"/><path d="M459.543,617.263a3.3,3.3,0,0,0-4.374-1.682h0a3.342,3.342,0,0,0-1.7,4.486L483.7,687.96a3.319,3.319,0,0,0,4.374,1.682h0a3.32,3.32,0,0,0,1.682-4.374Z" transform="translate(563.228 764.756)" fill="#fff"/><path d="M206.512,136.364a6.727,6.727,0,0,0,11.663-6.706L181.033,65.33a6.729,6.729,0,1,0-11.641,6.729Z" transform="translate(209.235 76.714)" fill="#fff"/><path d="M491.548,603.13a6.733,6.733,0,0,0-11.663,6.729l37.232,64.394a6.729,6.729,0,0,0,5.809,3.342,6.549,6.549,0,0,0,3.342-.9l-1.682-2.916h0l1.749,2.871a6.728,6.728,0,0,0,2.445-9.129Z" transform="translate(595.371 745.515)" fill="#fff"/><path d="M512.333,585.89a3.32,3.32,0,0,0-4.665-.718h0a3.32,3.32,0,0,0-.718,4.62l43.737,60.2a3.342,3.342,0,0,0,4.643.74h0a3.342,3.342,0,0,0,.74-4.643Z" transform="translate(629.312 726.509)" fill="#fff"/><path d="M185.572,147.479a3.342,3.342,0,0,0,4.665.718h0a3.342,3.342,0,0,0,.74-4.643l-43.737-60.2a3.32,3.32,0,0,0-4.643-.718h0a3.342,3.342,0,0,0-.74,4.643Z" transform="translate(175.538 101.911)" fill="#fff"/><path d="M165.21,164.464a3.3,3.3,0,0,0,4.688.247h0a3.3,3.3,0,0,0,.247-4.688L120.4,104.6a3.387,3.387,0,0,0-4.71-.247h0a3.3,3.3,0,0,0-.179,4.733Z" transform="translate(142.429 128.664)" fill="#fff"/><path d="M536.018,566.229a3.32,3.32,0,0,0-4.688-.247h0a3.342,3.342,0,0,0-.247,4.71L580.9,626.025a3.342,3.342,0,0,0,4.71.247h0a3.3,3.3,0,0,0,.247-4.688Z" transform="translate(659.032 702.411)" fill="#fff"/></g></g></svg>