<svg xmlns="http://www.w3.org/2000/svg" width="146.953" height="57.603" viewBox="0 0 146.953 57.603">
  <g id="MainACELogo" transform="translate(0 0)">
    <path id="Path_7" data-name="Path 7" d="M-1368.808,1709.755l-32.247,56.49h32.247l7.663-14.065h-15.782l15.782-28.246Z" transform="translate(1401.055 -1709.755)" fill="#fff"/>
    <path id="Path_8" data-name="Path 8" d="M-1364.868,1741.646h15.978l15.78,28.245h-15.879Z" transform="translate(1396.918 -1713.4)" fill="#fff"/>
    <g id="Group_3" data-name="Group 3" transform="translate(59.289 3.453)">
      <path id="Path_9" data-name="Path 9" d="M-1334.114,1741.471a30.113,30.113,0,0,1,2.41-12.61,24.547,24.547,0,0,1,6.38-8.643,25.749,25.749,0,0,1,9.013-4.97,34.016,34.016,0,0,1,10.311-1.6,37.425,37.425,0,0,1,7.825.816,32.4,32.4,0,0,1,7.233,2.449V1729.9a17.084,17.084,0,0,0-5.749-3.116,22,22,0,0,0-6.935-1.112,20.687,20.687,0,0,0-6.046.889,14.987,14.987,0,0,0-5.229,2.782,13.8,13.8,0,0,0-3.709,4.9,16.9,16.9,0,0,0-1.41,7.233,13.887,13.887,0,0,0,1.41,6.491,12.847,12.847,0,0,0,3.672,4.412,15.364,15.364,0,0,0,5.192,2.522,22.125,22.125,0,0,0,5.971.817,23.119,23.119,0,0,0,7.493-1.187,15.042,15.042,0,0,0,5.711-3.339v13.353a34.958,34.958,0,0,1-15.132,3.264,36.563,36.563,0,0,1-10.46-1.521,26.272,26.272,0,0,1-9.087-4.71,23.771,23.771,0,0,1-6.417-8.16A26.8,26.8,0,0,1-1334.114,1741.471Z" transform="translate(1334.114 -1713.653)" fill="#fff"/>
      <path id="Path_10" data-name="Path 10" d="M-1240.463,1714.91v11.868h-23.663v7.937h21.438v11.8h-21.438v8.456h24.108v11.868h-37.831V1714.91Z" transform="translate(1327.682 -1713.797)" fill="#fff"/>
    </g>
  </g>
</svg>
