<svg xmlns="http://www.w3.org/2000/svg" xmlns:xlink="http://www.w3.org/1999/xlink" width="1920" height="104.012" viewBox="0 0 1920 104.012">
  <defs>
    <clipPath id="clip-path">
      <path id="Path_15" data-name="Path 15" d="M-1965,1710.495s366.852-67.467,501.786-74.495c134.934,0,337.335,77.306,448.375,74.495s410.425-63.25,511.625-67.467S-45,1710.495-45,1710.495v29.517H-1965Z" transform="translate(1965 -1636)" fill="#393e5f"/>
    </clipPath>
  </defs>
  <g id="BottomDesign" transform="translate(1965 -1636)">
    <path id="Path_11" data-name="Path 11" d="M-1965,1710.495s366.852-67.467,501.786-74.495c134.934,0,337.335,77.306,448.375,74.495s410.425-63.25,511.625-67.467S-45,1710.495-45,1710.495v29.517H-1965Z" fill="#393e5f"/>
    <g id="Group_10" data-name="Group 10" transform="translate(-1965 1636)" clip-path="url(#clip-path)">
      <g id="Group_9" data-name="Group 9" transform="translate(-238.946 -19.678)">
        <path id="Path_12" data-name="Path 12" d="M206,1651.517s-366.852,67.467-501.786,74.495c-134.934,0-337.335-77.306-448.375-74.495s-410.425,63.25-511.625,67.467S-1714,1651.517-1714,1651.517V1622H206Z" transform="translate(2305.742 -1622)" fill="#ff669f" opacity="0.4"/>
        <path id="Path_13" data-name="Path 13" d="M-25,1651.517s-366.852,67.467-501.786,74.495c-134.934,0-337.335-77.306-448.375-74.495s-410.425,63.25-511.625,67.467S-1945,1651.517-1945,1651.517V1622H-25Z" transform="translate(2212.057 -1622)" fill="#ff669f" opacity="0.4"/>
        <path id="Path_14" data-name="Path 14" d="M-215,1651.517s-366.852,67.467-501.786,74.495c-134.934,0-337.335-77.306-448.375-74.495s-410.425,63.25-511.625,67.467S-2135,1651.517-2135,1651.517V1622H-215Z" transform="translate(2135 -1622)" fill="#ff669f" opacity="0.4"/>
      </g>
    </g>
  </g>
</svg>
