<svg xmlns="http://www.w3.org/2000/svg" width="1454.246" height="1417.854" viewBox="0 0 1454.246 1417.854">
  <g id="Clock" transform="translate(1767.733 -1154.819) rotate(90)">
    <g id="Group_30" data-name="Group 30" transform="translate(2326.91 1475.389)">
      <path id="Rectangle_464" data-name="Rectangle 464" d="M1.477,0H4.941A1.481,1.481,0,0,1,6.422,1.481V75.953a1.481,1.481,0,0,1-1.481,1.481H1.481A1.481,1.481,0,0,1,0,75.953V1.477A1.477,1.477,0,0,1,1.477,0Z" transform="translate(0 4.772) rotate(-48)" fill="#fff"/>
    </g>
    <g id="Group_31" data-name="Group 31" transform="translate(1338.74 585.636)">
      <path id="Rectangle_465" data-name="Rectangle 465" d="M1.481,0H4.94A1.481,1.481,0,0,1,6.422,1.481V75.953A1.481,1.481,0,0,1,4.94,77.434H1.477A1.477,1.477,0,0,1,0,75.957V1.481A1.481,1.481,0,0,1,1.481,0Z" transform="matrix(0.669, -0.743, 0.743, 0.669, 0, 4.772)" fill="#fff"/>
    </g>
    <g id="Group_32" data-name="Group 32" transform="translate(2369.691 1425.511)">
      <path id="Path_25" data-name="Path 25" d="M1785.552,879.82l.049-.066a3.172,3.172,0,0,0-.7-4.429l-57.5-41.777a3.173,3.173,0,0,0-4.44.713l-.038.054a3.176,3.176,0,0,0,.7,4.429l57.5,41.777A3.17,3.17,0,0,0,1785.552,879.82Z" transform="translate(-1722.317 -832.941)" fill="#fff"/>
    </g>
    <g id="Group_33" data-name="Group 33" transform="translate(1293.913 643.914)">
      <path id="Path_26" data-name="Path 26" d="M1220.446,469.145l-.047.064a3.172,3.172,0,0,0,.7,4.429l57.5,41.777a3.171,3.171,0,0,0,4.44-.715l.036-.051a3.173,3.173,0,0,0-.7-4.427l-57.5-41.779A3.172,3.172,0,0,0,1220.446,469.145Z" transform="translate(-1219.793 -467.837)" fill="#fff"/>
    </g>
    <g id="Group_34" data-name="Group 34" transform="translate(1253.988 705.397)">
      <path id="Path_27" data-name="Path 27" d="M1201.607,498.143l-.038.071a3.169,3.169,0,0,0,1.16,4.331l61.5,35.509a3.176,3.176,0,0,0,4.324-1.152l.032-.054a3.173,3.173,0,0,0-1.145-4.356l-61.5-35.509A3.173,3.173,0,0,0,1201.607,498.143Z" transform="translate(-1201.143 -496.557)" fill="#fff"/>
    </g>
    <g id="Group_35" data-name="Group 35" transform="translate(2405.618 1370.294)">
      <path id="Path_28" data-name="Path 28" d="M1806.518,847.482l.041-.071a3.172,3.172,0,0,0-1.161-4.333l-61.5-35.507a3.177,3.177,0,0,0-4.326,1.15l-.032.056a3.172,3.172,0,0,0,1.148,4.356l61.5,35.507A3.17,3.17,0,0,0,1806.518,847.482Z" transform="translate(-1739.099 -807.148)" fill="#fff"/>
    </g>
    <g id="Group_36" data-name="Group 36" transform="translate(1219.694 769.698)">
      <path id="Rectangle_466" data-name="Rectangle 466" d="M1.481,0h3.46A1.481,1.481,0,0,1,6.422,1.481V75.824A1.477,1.477,0,0,1,4.945,77.3H1.477A1.477,1.477,0,0,1,0,75.824V1.481A1.481,1.481,0,0,1,1.481,0Z" transform="matrix(0.407, -0.913, 0.913, 0.407, 0, 5.867)" fill="#fff"/>
    </g>
    <g id="Group_37" data-name="Group 37" transform="translate(2434.565 1310.611)">
      <path id="Rectangle_467" data-name="Rectangle 467" d="M1.485,0H4.938A1.485,1.485,0,0,1,6.423,1.485V75.818A1.484,1.484,0,0,1,4.939,77.3H1.486A1.486,1.486,0,0,1,0,75.815V1.485A1.485,1.485,0,0,1,1.485,0Z" transform="matrix(0.406, -0.914, 0.914, 0.406, 0, 5.869)" fill="#fff"/>
    </g>
    <g id="Group_38" data-name="Group 38" transform="translate(1194.438 839.158)">
      <path id="Path_29" data-name="Path 29" d="M1173.508,561.232l-.025.077a3.172,3.172,0,0,0,2.036,4l67.457,21.917a3.172,3.172,0,0,0,4-2.053l.019-.062a3.173,3.173,0,0,0-2.036-3.992L1177.5,559.2A3.171,3.171,0,0,0,1173.508,561.232Z" transform="translate(-1173.326 -559.04)" fill="#fff"/>
    </g>
    <g id="Group_39" data-name="Group 39" transform="translate(2459.231 1250.113)">
      <path id="Path_30" data-name="Path 30" d="M1837.786,777.153l.024-.077a3.168,3.168,0,0,0-2.036-3.992l-67.457-21.919a3.172,3.172,0,0,0-4,2.053l-.019.062a3.177,3.177,0,0,0,2.036,3.993l67.457,21.917A3.172,3.172,0,0,0,1837.786,777.153Z" transform="translate(-1764.143 -751.008)" fill="#fff"/>
    </g>
    <g id="Group_40" data-name="Group 40" transform="translate(2476.27 1186.466)">
      <path id="Path_31" data-name="Path 31" d="M1847.769,739.938l.017-.079a3.169,3.169,0,0,0-2.443-3.761l-69.392-14.75a3.174,3.174,0,0,0-3.761,2.443l-.015.062a3.174,3.174,0,0,0,2.441,3.778l69.392,14.75A3.172,3.172,0,0,0,1847.769,739.938Z" transform="translate(-1772.102 -721.277)" fill="#fff"/>
    </g>
    <g id="Group_41" data-name="Group 41" transform="translate(1175.467 909.971)">
      <path id="Path_32" data-name="Path 32" d="M1164.551,594.632l-.017.079a3.172,3.172,0,0,0,2.443,3.761l69.395,14.75a3.173,3.173,0,0,0,3.759-2.443l.015-.064a3.173,3.173,0,0,0-2.438-3.776l-69.395-14.75A3.172,3.172,0,0,0,1164.551,594.632Z" transform="translate(-1164.464 -592.119)" fill="#fff"/>
    </g>
    <g id="Group_42" data-name="Group 42" transform="translate(1164.004 982.381)">
      <path id="Path_33" data-name="Path 33" d="M1159.136,628.783l-.008.081a3.17,3.17,0,0,0,2.822,3.485l70.608,7.42a3.174,3.174,0,0,0,3.483-2.813l.008-.064a3.171,3.171,0,0,0-2.819-3.509l-70.609-7.422A3.172,3.172,0,0,0,1159.136,628.783Z" transform="translate(-1159.11 -625.944)" fill="#fff"/>
    </g>
    <g id="Group_43" data-name="Group 43" transform="translate(2486.527 1121.385)">
      <path id="Path_34" data-name="Path 34" d="M1853.829,701.88l.008-.079a3.172,3.172,0,0,0-2.822-3.485l-70.61-7.422a3.177,3.177,0,0,0-3.483,2.815l-.009.064a3.172,3.172,0,0,0,2.819,3.509l70.61,7.422A3.172,3.172,0,0,0,1853.829,701.88Z" transform="translate(-1776.894 -690.876)" fill="#fff"/>
    </g>
    <g id="Group_44" data-name="Group 44" transform="translate(1154.819 1052.384)">
      <path id="Rectangle_468" data-name="Rectangle 468" d="M1.481,0H75.94a1.481,1.481,0,0,1,1.481,1.481V4.945a1.477,1.477,0,0,1-1.477,1.477H1.477A1.477,1.477,0,0,1,0,4.945V1.481A1.481,1.481,0,0,1,1.481,0Z" transform="translate(3.212 3.21)" fill="#fff"/>
      <path id="Path_35" data-name="Path 35" d="M1232.289,671.489H1161.2a6.39,6.39,0,0,1-6.382-6.384v-.081a6.388,6.388,0,0,1,6.384-6.38h71.086a6.374,6.374,0,0,1,6.373,6.384A6.408,6.408,0,0,1,1232.289,671.489Zm-71.047-6.422v.039l71.047-.039Z" transform="translate(-1154.819 -658.644)" fill="#fff"/>
    </g>
    <g id="Group_45" data-name="Group 45" transform="translate(2488.83 1052.384)">
      <path id="Rectangle_469" data-name="Rectangle 469" d="M1.483,0H75.936a1.485,1.485,0,0,1,1.485,1.485V4.938a1.485,1.485,0,0,1-1.485,1.485H1.481A1.481,1.481,0,0,1,0,4.941V1.483A1.483,1.483,0,0,1,1.483,0Z" transform="translate(3.211 3.21)" fill="#fff"/>
      <path id="Path_36" data-name="Path 36" d="M1855.422,671.489h-71.071a6.38,6.38,0,0,1-6.382-6.394,6.411,6.411,0,0,1,6.382-6.45h71.071a6.422,6.422,0,0,1,0,12.845Zm-71.071-6.422h0Z" transform="translate(-1777.969 -658.644)" fill="#fff"/>
    </g>
    <g id="Group_46" data-name="Group 46" transform="translate(1163.69 1121.06)">
      <path id="Rectangle_470" data-name="Rectangle 470" d="M1.481,0H75.94a1.481,1.481,0,0,1,1.481,1.481V4.943a1.479,1.479,0,0,1-1.479,1.479H1.483A1.483,1.483,0,0,1,0,4.94V1.481A1.481,1.481,0,0,1,1.481,0Z" transform="translate(0 8.098) rotate(-6.004)" fill="#fff"/>
    </g>
    <g id="Group_47" data-name="Group 47" transform="translate(2486.133 982.078)">
      <path id="Rectangle_471" data-name="Rectangle 471" d="M1.485,0H75.936a1.485,1.485,0,0,1,1.485,1.485V4.941A1.481,1.481,0,0,1,75.94,6.423H1.481A1.481,1.481,0,0,1,0,4.941V1.485A1.485,1.485,0,0,1,1.485,0Z" transform="translate(0 8.073) rotate(-5.985)" fill="#fff"/>
    </g>
    <g id="Group_48" data-name="Group 48" transform="translate(2476.218 909.971)">
      <path id="Path_37" data-name="Path 37" d="M1847.814,594.711l-.017-.079a3.169,3.169,0,0,0-3.759-2.443l-69.448,14.763a3.168,3.168,0,0,0-2.436,3.783l.013.062a3.176,3.176,0,0,0,3.759,2.436l69.446-14.763A3.17,3.17,0,0,0,1847.814,594.711Z" transform="translate(-1772.078 -592.119)" fill="#fff"/>
    </g>
    <g id="Group_49" data-name="Group 49" transform="translate(1175.469 1186.456)">
      <path id="Path_38" data-name="Path 38" d="M1164.536,739.864l.015.079a3.173,3.173,0,0,0,3.761,2.443l69.447-14.763a3.169,3.169,0,0,0,2.438-3.783l-.015-.064a3.176,3.176,0,0,0-3.759-2.434l-69.446,14.76A3.169,3.169,0,0,0,1164.536,739.864Z" transform="translate(-1164.465 -721.272)" fill="#fff"/>
    </g>
    <g id="Group_50" data-name="Group 50" transform="translate(1194.438 1250.109)">
      <path id="Path_39" data-name="Path 39" d="M1173.483,777.08l.025.077a3.171,3.171,0,0,0,3.995,2.038l67.472-21.924a3.173,3.173,0,0,0,2.032-4.012l-.021-.062a3.174,3.174,0,0,0-3.995-2.036l-67.473,21.924A3.169,3.169,0,0,0,1173.483,777.08Z" transform="translate(-1173.326 -751.006)" fill="#fff"/>
    </g>
    <g id="Group_51" data-name="Group 51" transform="translate(2459.214 839.158)">
      <path id="Path_40" data-name="Path 40" d="M1837.818,561.309l-.024-.077a3.174,3.174,0,0,0-4-2.036l-67.47,21.924a3.173,3.173,0,0,0-2.032,4.012l.019.06a3.176,3.176,0,0,0,4,2.038l67.47-21.924A3.17,3.17,0,0,0,1837.818,561.309Z" transform="translate(-1764.135 -559.04)" fill="#fff"/>
    </g>
    <g id="Group_52" data-name="Group 52" transform="translate(2435.616 770.716)">
      <path id="Path_41" data-name="Path 41" d="M1824.006,529.027l-.032-.075a3.173,3.173,0,0,0-4.188-1.608l-64.8,28.851a3.173,3.173,0,0,0-1.608,4.183l.026.058a3.171,3.171,0,0,0,4.193,1.625l64.8-28.849A3.172,3.172,0,0,0,1824.006,529.027Z" transform="translate(-1753.112 -527.07)" fill="#fff"/>
    </g>
    <g id="Group_53" data-name="Group 53" transform="translate(1220.707 1311.627)">
      <path id="Path_42" data-name="Path 42" d="M1185.871,813.054l.034.073a3.168,3.168,0,0,0,4.185,1.608l64.8-28.849a3.176,3.176,0,0,0,1.607-4.185l-.025-.06a3.171,3.171,0,0,0-4.194-1.623l-64.8,28.849A3.174,3.174,0,0,0,1185.871,813.054Z" transform="translate(-1185.597 -779.743)" fill="#fff"/>
    </g>
    <g id="Group_54" data-name="Group 54" transform="translate(2404.507 704.242)">
      <path id="Rectangle_472" data-name="Rectangle 472" d="M1.481,0H75.82A1.481,1.481,0,0,1,77.3,1.481V4.939a1.482,1.482,0,0,1-1.482,1.482H1.48A1.48,1.48,0,0,1,0,4.941V1.481A1.481,1.481,0,0,1,1.481,0Z" transform="translate(0 38.64) rotate(-29.991)" fill="#fff"/>
    </g>
    <g id="Group_55" data-name="Group 55" transform="translate(1252.826 1369.161)">
      <path id="Rectangle_473" data-name="Rectangle 473" d="M1.481,0H75.821A1.481,1.481,0,0,1,77.3,1.481V4.942a1.482,1.482,0,0,1-1.482,1.482H1.48A1.48,1.48,0,0,1,0,4.944V1.481A1.481,1.481,0,0,1,1.481,0Z" transform="translate(0 38.649) rotate(-29.999)" fill="#fff"/>
    </g>
    <g id="Group_56" data-name="Group 56" transform="translate(2369.734 643.914)">
      <path id="Path_43" data-name="Path 43" d="M1785.573,469.209l-.047-.064a3.171,3.171,0,0,0-4.43-.7l-57.453,41.743a3.173,3.173,0,0,0-.685,4.453l.039.051a3.176,3.176,0,0,0,4.423.691l57.453-41.742A3.17,3.17,0,0,0,1785.573,469.209Z" transform="translate(-1722.337 -467.837)" fill="#fff"/>
    </g>
    <g id="Group_57" data-name="Group 57" transform="translate(1293.912 1425.546)">
      <path id="Path_44" data-name="Path 44" d="M1220.4,879.734l.047.064a3.171,3.171,0,0,0,4.429.7l57.456-41.743a3.173,3.173,0,0,0,.685-4.453l-.039-.051a3.176,3.176,0,0,0-4.423-.691L1221.1,875.305A3.17,3.17,0,0,0,1220.4,879.734Z" transform="translate(-1219.793 -832.958)" fill="#fff"/>
    </g>
    <g id="Group_58" data-name="Group 58" transform="translate(1340.047 1476.707)">
      <path id="Path_45" data-name="Path 45" d="M1242.158,909.707l.054.06a3.172,3.172,0,0,0,4.478.235l52.819-47.559a3.176,3.176,0,0,0,.235-4.478l-.043-.047a3.172,3.172,0,0,0-4.489-.248l-52.819,47.559A3.172,3.172,0,0,0,1242.158,909.707Z" transform="translate(-1241.344 -856.856)" fill="#fff"/>
    </g>
    <g id="Group_59" data-name="Group 59" transform="translate(2328.233 586.942)">
      <path id="Path_46" data-name="Path 46" d="M1761.348,442.333l-.053-.06a3.172,3.172,0,0,0-4.479-.233L1704,489.6a3.173,3.173,0,0,0-.233,4.476l.041.049a3.175,3.175,0,0,0,4.492.246l52.819-47.559A3.17,3.17,0,0,0,1761.348,442.333Z" transform="translate(-1702.95 -441.224)" fill="#fff"/>
    </g>
    <g id="Group_60" data-name="Group 60" transform="translate(1390.577 1521.97)">
      <rect id="Rectangle_474" data-name="Rectangle 474" width="77.435" height="6.422" rx="1.481" transform="translate(0 57.545) rotate(-48)" fill="#fff"/>
    </g>
    <g id="Group_61" data-name="Group 61" transform="translate(2280.329 533.799)">
      <rect id="Rectangle_475" data-name="Rectangle 475" width="77.434" height="6.422" rx="1.481" transform="translate(0 57.544) rotate(-48)" fill="#fff"/>
    </g>
    <g id="Group_62" data-name="Group 62" transform="translate(2230.453 488.972)">
      <path id="Path_47" data-name="Path 47" d="M1704.152,396.113l-.066-.049a3.175,3.175,0,0,0-4.429.7l-41.777,57.5a3.172,3.172,0,0,0,.715,4.438l.054.039a3.175,3.175,0,0,0,4.429-.7l41.777-57.5A3.17,3.17,0,0,0,1704.152,396.113Z" transform="translate(-1657.275 -395.46)" fill="#fff"/>
    </g>
    <g id="Group_63" data-name="Group 63" transform="translate(1448.856 1564.751)">
      <path id="Path_48" data-name="Path 48" d="M1293.477,961.216l.066.047a3.169,3.169,0,0,0,4.429-.7l41.777-57.5a3.174,3.174,0,0,0-.715-4.44l-.052-.036a3.176,3.176,0,0,0-4.429.7l-41.777,57.5A3.17,3.17,0,0,0,1293.477,961.216Z" transform="translate(-1292.171 -897.983)" fill="#fff"/>
    </g>
    <g id="Group_64" data-name="Group 64" transform="translate(2175.235 449.046)">
      <path id="Path_49" data-name="Path 49" d="M1671.815,377.275l-.071-.041a3.171,3.171,0,0,0-4.331,1.16l-35.509,61.5a3.178,3.178,0,0,0,1.152,4.326l.054.032a3.171,3.171,0,0,0,4.356-1.147l35.509-61.5A3.171,3.171,0,0,0,1671.815,377.275Z" transform="translate(-1631.481 -376.809)" fill="#fff"/>
    </g>
    <g id="Group_65" data-name="Group 65" transform="translate(1510.339 1600.678)">
      <path id="Path_50" data-name="Path 50" d="M1322.475,982.185l.071.041a3.17,3.17,0,0,0,4.333-1.16l35.509-61.5a3.178,3.178,0,0,0-1.152-4.327l-.056-.032a3.169,3.169,0,0,0-4.354,1.147l-35.509,61.5A3.17,3.17,0,0,0,1322.475,982.185Z" transform="translate(-1320.891 -914.766)" fill="#fff"/>
    </g>
    <g id="Group_66" data-name="Group 66" transform="translate(2115.54 414.751)">
      <path id="Rectangle_476" data-name="Rectangle 476" d="M1.481,0H75.82A1.481,1.481,0,0,1,77.3,1.481V4.944a1.48,1.48,0,0,1-1.48,1.48H1.482A1.482,1.482,0,0,1,0,4.942V1.481A1.481,1.481,0,0,1,1.481,0Z" transform="translate(0 70.618) rotate(-66.001)" fill="#fff"/>
    </g>
    <g id="Group_67" data-name="Group 67" transform="translate(1574.649 1629.626)">
      <path id="Rectangle_477" data-name="Rectangle 477" d="M1.481,0H75.82A1.481,1.481,0,0,1,77.3,1.481v3.46a1.48,1.48,0,0,1-1.48,1.48H1.482A1.482,1.482,0,0,1,0,4.939V1.481A1.481,1.481,0,0,1,1.481,0Z" transform="matrix(0.407, -0.914, 0.914, 0.407, 0, 70.623)" fill="#fff"/>
    </g>
    <g id="Group_68" data-name="Group 68" transform="translate(1644.099 1654.291)">
      <path id="Path_51" data-name="Path 51" d="M1385.566,1013.45l.077.026a3.174,3.174,0,0,0,4-2.036l21.919-67.457a3.173,3.173,0,0,0-2.053-4l-.062-.019a3.173,3.173,0,0,0-3.993,2.036l-21.919,67.458A3.17,3.17,0,0,0,1385.566,1013.45Z" transform="translate(-1383.374 -939.81)" fill="#fff"/>
    </g>
    <g id="Group_69" data-name="Group 69" transform="translate(2055.054 389.498)">
      <path id="Path_52" data-name="Path 52" d="M1601.488,349.175l-.077-.026a3.17,3.17,0,0,0-3.995,2.036L1575.5,418.642a3.174,3.174,0,0,0,2.055,4l.06.019a3.178,3.178,0,0,0,3.995-2.036l21.917-67.457A3.169,3.169,0,0,0,1601.488,349.175Z" transform="translate(-1575.342 -348.993)" fill="#fff"/>
    </g>
    <g id="Group_70" data-name="Group 70" transform="translate(1991.405 370.527)">
      <path id="Path_53" data-name="Path 53" d="M1564.272,340.218l-.081-.017a3.168,3.168,0,0,0-3.759,2.443l-14.752,69.393a3.177,3.177,0,0,0,2.443,3.761l.064.013a3.17,3.17,0,0,0,3.777-2.438l14.752-69.395A3.17,3.17,0,0,0,1564.272,340.218Z" transform="translate(-1545.61 -340.131)" fill="#fff"/>
    </g>
    <g id="Group_71" data-name="Group 71" transform="translate(1714.912 1671.33)">
      <path id="Path_54" data-name="Path 54" d="M1418.965,1023.436l.079.017a3.172,3.172,0,0,0,3.761-2.443l14.75-69.395a3.176,3.176,0,0,0-2.443-3.761l-.062-.013a3.17,3.17,0,0,0-3.776,2.439l-14.752,69.394A3.173,3.173,0,0,0,1418.965,1023.436Z" transform="translate(-1416.453 -947.769)" fill="#fff"/>
    </g>
    <g id="Group_72" data-name="Group 72" transform="translate(1787.322 1681.587)">
      <path id="Path_55" data-name="Path 55" d="M1453.118,1029.494l.079.009a3.171,3.171,0,0,0,3.485-2.821l7.42-70.609a3.176,3.176,0,0,0-2.813-3.485l-.064-.006a3.171,3.171,0,0,0-3.509,2.819l-7.422,70.608A3.171,3.171,0,0,0,1453.118,1029.494Z" transform="translate(-1450.277 -952.561)" fill="#fff"/>
    </g>
    <g id="Group_73" data-name="Group 73" transform="translate(1926.325 359.062)">
      <path id="Path_56" data-name="Path 56" d="M1526.213,334.8l-.079-.009a3.172,3.172,0,0,0-3.485,2.822l-7.422,70.611a3.177,3.177,0,0,0,2.815,3.483l.064.006a3.17,3.17,0,0,0,3.509-2.819l7.42-70.609A3.171,3.171,0,0,0,1526.213,334.8Z" transform="translate(-1515.209 -334.776)" fill="#fff"/>
    </g>
    <g id="Group_74" data-name="Group 74" transform="translate(1857.325 313.486)">
      <path id="Rectangle_478" data-name="Rectangle 478" d="M1.481,0h3.46A1.481,1.481,0,0,1,6.423,1.481V112.336a1.477,1.477,0,0,1-1.477,1.477H1.479A1.479,1.479,0,0,1,0,112.334V1.481A1.481,1.481,0,0,1,1.481,0Z" transform="translate(3.21 3.211)" fill="#ff1d25"/>
      <path id="Path_57" data-name="Path 57" d="M1489.444,433.722h-.009a6.406,6.406,0,0,1-6.459-6.373V319.868a6.388,6.388,0,0,1,6.382-6.382h.081a6.388,6.388,0,0,1,6.382,6.382V427.349a6.37,6.37,0,0,1-6.377,6.373Zm-.086-113.813.041,107.44Z" transform="translate(-1482.977 -313.486)" fill="#ff1d25"/>
    </g>
    <g id="Group_75" data-name="Group 75" transform="translate(1857.325 1683.89)">
      <path id="Rectangle_479" data-name="Rectangle 479" d="M1.481,0H4.942A1.481,1.481,0,0,1,6.423,1.481V75.943a1.477,1.477,0,0,1-1.477,1.477H1.479A1.479,1.479,0,0,1,0,75.941V1.481A1.481,1.481,0,0,1,1.481,0Z" transform="translate(3.21 3.21)" fill="#fff"/>
      <path id="Path_58" data-name="Path 58" d="M1489.444,1037.479h-.086a6.39,6.39,0,0,1-6.382-6.384V960.007a6.37,6.37,0,0,1,6.375-6.371h.009a6.4,6.4,0,0,1,6.461,6.371V1031.1A6.393,6.393,0,0,1,1489.444,1037.479Zm-.045-6.422h.04l-.04-71.05Z" transform="translate(-1482.977 -953.636)" fill="#fff"/>
    </g>
    <g id="Group_76" data-name="Group 76" transform="translate(1926.013 1681.193)">
      <path id="Rectangle_480" data-name="Rectangle 480" d="M1.481,0H4.942A1.481,1.481,0,0,1,6.423,1.481v74.46a1.479,1.479,0,0,1-1.479,1.479H1.483A1.483,1.483,0,0,1,0,75.938V1.481A1.481,1.481,0,0,1,1.481,0Z" transform="translate(0 0.67) rotate(-5.985)" fill="#fff"/>
    </g>
    <g id="Group_77" data-name="Group 77" transform="translate(1787.006 358.749)">
      <path id="Rectangle_481" data-name="Rectangle 481" d="M1.481,0H4.942A1.481,1.481,0,0,1,6.423,1.481v74.46a1.479,1.479,0,0,1-1.479,1.479H1.483A1.483,1.483,0,0,1,0,75.938V1.481A1.481,1.481,0,0,1,1.481,0Z" transform="translate(0 0.672) rotate(-6.004)" fill="#fff"/>
    </g>
    <g id="Group_78" data-name="Group 78" transform="translate(1991.396 1671.276)">
      <path id="Path_59" data-name="Path 59" d="M1564.2,1023.482l.079-.017a3.172,3.172,0,0,0,2.442-3.761l-14.76-69.446a3.172,3.172,0,0,0-3.785-2.438l-.062.015a3.177,3.177,0,0,0-2.434,3.759l14.761,69.446A3.17,3.17,0,0,0,1564.2,1023.482Z" transform="translate(-1545.605 -947.744)" fill="#fff"/>
    </g>
    <g id="Group_79" data-name="Group 79" transform="translate(1714.912 370.527)">
      <path id="Path_60" data-name="Path 60" d="M1419.044,340.2l-.079.017a3.17,3.17,0,0,0-2.443,3.759l14.763,69.448a3.168,3.168,0,0,0,3.783,2.436l.064-.013a3.176,3.176,0,0,0,2.434-3.759l-14.76-69.446A3.171,3.171,0,0,0,1419.044,340.2Z" transform="translate(-1416.453 -340.131)" fill="#fff"/>
    </g>
    <g id="Group_80" data-name="Group 80" transform="translate(2055.049 1654.272)">
      <path id="Path_61" data-name="Path 61" d="M1601.414,1013.486l.079-.026a3.168,3.168,0,0,0,2.034-3.994L1581.6,941.993a3.173,3.173,0,0,0-4.012-2.032l-.062.021a3.174,3.174,0,0,0-2.036,3.995l21.921,67.472A3.172,3.172,0,0,0,1601.414,1013.486Z" transform="translate(-1575.339 -939.801)" fill="#fff"/>
    </g>
    <g id="Group_81" data-name="Group 81" transform="translate(1644.099 389.498)">
      <path id="Path_62" data-name="Path 62" d="M1385.643,349.149l-.077.023a3.17,3.17,0,0,0-2.035,3.995l21.923,67.474a3.171,3.171,0,0,0,4.01,2.029l.062-.019a3.176,3.176,0,0,0,2.036-3.995l-21.923-67.474A3.171,3.171,0,0,0,1385.643,349.149Z" transform="translate(-1383.374 -348.993)" fill="#fff"/>
    </g>
    <g id="Group_82" data-name="Group 82" transform="translate(1575.658 415.767)">
      <path id="Path_63" data-name="Path 63" d="M1353.36,361.538l-.075.034a3.168,3.168,0,0,0-1.606,4.185l28.849,64.8a3.174,3.174,0,0,0,4.183,1.608l.06-.026a3.173,3.173,0,0,0,1.625-4.194l-28.851-64.8A3.171,3.171,0,0,0,1353.36,361.538Z" transform="translate(-1351.404 -361.264)" fill="#fff"/>
    </g>
    <g id="Group_83" data-name="Group 83" transform="translate(2116.569 1630.673)">
      <path id="Path_64" data-name="Path 64" d="M1637.386,999.672l.073-.032a3.171,3.171,0,0,0,1.608-4.187l-28.849-64.8a3.173,3.173,0,0,0-4.183-1.608l-.06.026a3.172,3.172,0,0,0-1.623,4.194l28.849,64.8A3.169,3.169,0,0,0,1637.386,999.672Z" transform="translate(-1604.077 -928.777)" fill="#fff"/>
    </g>
    <g id="Group_84" data-name="Group 84" transform="translate(1509.173 447.888)">
      <path id="Rectangle_482" data-name="Rectangle 482" d="M1.481,0h3.46A1.481,1.481,0,0,1,6.422,1.481V75.819A1.482,1.482,0,0,1,4.94,77.3H1.48A1.48,1.48,0,0,1,0,75.821V1.481A1.481,1.481,0,0,1,1.481,0Z" transform="translate(0 3.212) rotate(-30.007)" fill="#fff"/>
    </g>
    <g id="Group_85" data-name="Group 85" transform="translate(2174.111 1599.563)">
      <path id="Rectangle_483" data-name="Rectangle 483" d="M1.481,0H4.942A1.481,1.481,0,0,1,6.423,1.481V75.818A1.482,1.482,0,0,1,4.941,77.3H1.48A1.48,1.48,0,0,1,0,75.82V1.481A1.481,1.481,0,0,1,1.481,0Z" transform="translate(0 3.21) rotate(-29.982)" fill="#fff"/>
    </g>
    <g id="Group_86" data-name="Group 86" transform="translate(2230.488 1564.793)">
      <path id="Path_65" data-name="Path 65" d="M1704.069,961.243l.067-.049a3.17,3.17,0,0,0,.7-4.427l-41.745-57.456a3.169,3.169,0,0,0-4.451-.685l-.051.039a3.175,3.175,0,0,0-.693,4.421l41.744,57.456A3.171,3.171,0,0,0,1704.069,961.243Z" transform="translate(-1657.291 -898.003)" fill="#fff"/>
    </g>
    <g id="Group_87" data-name="Group 87" transform="translate(1448.856 488.972)">
      <path id="Path_66" data-name="Path 66" d="M1293.543,396.066l-.064.047a3.171,3.171,0,0,0-.7,4.429L1334.52,458a3.169,3.169,0,0,0,4.451.685l.054-.039a3.177,3.177,0,0,0,.691-4.421l-41.742-57.454A3.171,3.171,0,0,0,1293.543,396.066Z" transform="translate(-1292.171 -395.46)" fill="#fff"/>
    </g>
    <g id="Group_88" data-name="Group 88" transform="translate(1391.884 535.105)">
      <path id="Path_67" data-name="Path 67" d="M1266.667,417.826l-.06.053a3.167,3.167,0,0,0-.233,4.476l47.559,52.821a3.175,3.175,0,0,0,4.476.233l.047-.043a3.169,3.169,0,0,0,.249-4.487l-47.559-52.821A3.169,3.169,0,0,0,1266.667,417.826Z" transform="translate(-1265.558 -417.01)" fill="#fff"/>
    </g>
    <g id="Group_89" data-name="Group 89" transform="translate(2281.648 1523.291)">
      <path id="Path_68" data-name="Path 68" d="M1734.04,937.016l.062-.056a3.169,3.169,0,0,0,.236-4.476l-47.559-52.821a3.176,3.176,0,0,0-4.479-.233l-.049.043a3.172,3.172,0,0,0-.249,4.489l47.561,52.821A3.169,3.169,0,0,0,1734.04,937.016Z" transform="translate(-1681.189 -878.616)" fill="#fff"/>
    </g>
  </g>
</svg>
