<svg xmlns="http://www.w3.org/2000/svg" viewBox="0 0 670.06 684.23"><defs><style>.cls-1{fill:#fff;}.cls-2{fill:#ff669f;}</style></defs><title>Clock</title><g id="Layer_2" data-name="Layer 2"><g id="Layer_1-2" data-name="Layer 1"><path class="cls-1" d="M554.44,543.74a1.47,1.47,0,0,0-2.08.12l0,0a1.47,1.47,0,0,0,.11,2.09l24.68,22.23a1.49,1.49,0,0,0,2.09-.11l0,0a1.49,1.49,0,0,0-.11-2.09Z"/><rect class="cls-1" x="102.68" y="122.26" width="3" height="36.17" rx="1.48" transform="translate(-69.81 123.75) rotate(-47.96)"/><path class="cls-1" d="M600.56,539.25,573.7,519.74a1.5,1.5,0,0,0-2.08.33v0a1.48,1.48,0,0,0,.32,2.07l26.86,19.51a1.48,1.48,0,0,0,2.07-.33l0,0A1.49,1.49,0,0,0,600.56,539.25Z"/><path class="cls-1" d="M69.41,157.06l26.86,19.52a1.49,1.49,0,0,0,2.08-.34v0a1.48,1.48,0,0,0-.32-2.07L71.18,154.63a1.48,1.48,0,0,0-2.07.33l0,0A1.49,1.49,0,0,0,69.41,157.06Z"/><path class="cls-1" d="M50.14,187.17l28.73,16.59A3,3,0,0,0,83,202.65a2.91,2.91,0,0,0,.31-2.27,3,3,0,0,0-1.39-1.82L53.14,182a3,3,0,0,0-4.07,1.09l0,0A3,3,0,0,0,50.14,187.17Z"/><path class="cls-1" d="M619.83,509.15,591.1,492.56a3,3,0,0,0-4.08,1.1,3,3,0,0,0,1.08,4.1l28.73,16.58a2.91,2.91,0,0,0,1.48.4,3,3,0,0,0,.78-.1,2.94,2.94,0,0,0,1.81-1.39l-1.3-.75h0l1.32.72A3,3,0,0,0,619.83,509.15Z"/><path class="cls-1" d="M35.48,216.45l30.29,13.49a1.48,1.48,0,0,0,2-.76l0,0a1.47,1.47,0,0,0-.75-2L36.7,213.71a1.48,1.48,0,0,0-2,.75l0,0A1.48,1.48,0,0,0,35.48,216.45Z"/><path class="cls-1" d="M634.48,479.86,604.2,466.38a1.48,1.48,0,0,0-2,.76l0,0a1.48,1.48,0,0,0,.75,2l30.28,13.48a1.48,1.48,0,0,0,2-.75v0A1.48,1.48,0,0,0,634.48,479.86Z"/><path class="cls-1" d="M23.36,248.48l31.51,10.24a1.49,1.49,0,0,0,1.87-1v0a1.48,1.48,0,0,0-1-1.86L24.28,245.63a1.47,1.47,0,0,0-1.86,1v0A1.48,1.48,0,0,0,23.36,248.48Z"/><path class="cls-1" d="M646.61,447.83,615.1,437.6a1.48,1.48,0,0,0-1.87.95v0a1.49,1.49,0,0,0,.95,1.87l31.51,10.24a1.49,1.49,0,0,0,1.87-.95v0A1.49,1.49,0,0,0,646.61,447.83Z"/><path class="cls-1" d="M655.32,414.71l-32.41-6.89a1.49,1.49,0,0,0-1.76,1.15v0a1.49,1.49,0,0,0,1.14,1.77l32.42,6.89a1.48,1.48,0,0,0,1.76-1.14v0A1.48,1.48,0,0,0,655.32,414.71Z"/><path class="cls-1" d="M14.65,281.6l32.41,6.89a1.49,1.49,0,0,0,1.76-1.14v0a1.47,1.47,0,0,0-1.13-1.76l-32.42-6.89a1.48,1.48,0,0,0-1.76,1.14v0A1.48,1.48,0,0,0,14.65,281.6Z"/><path class="cls-1" d="M9.44,315.45l33,3.47a1.49,1.49,0,0,0,1.62-1.32v0a1.49,1.49,0,0,0-1.32-1.64l-33-3.46a1.48,1.48,0,0,0-1.63,1.31v0A1.48,1.48,0,0,0,9.44,315.45Z"/><path class="cls-1" d="M660.53,380.87l-33-3.47a1.49,1.49,0,0,0-1.63,1.31v0a1.48,1.48,0,0,0,1.32,1.64l33,3.47a1.49,1.49,0,0,0,1.63-1.32v0A1.47,1.47,0,0,0,660.53,380.87Z"/><path class="cls-1" d="M43,348.14A2.82,2.82,0,0,0,42,346a3.4,3.4,0,0,0-2.31-.87H3.27a3.14,3.14,0,0,0-3.27,3v0a3.14,3.14,0,0,0,3.27,3H39.73A3.15,3.15,0,0,0,43,348.14Z"/><path class="cls-1" d="M666.78,345.16H630.33a3.15,3.15,0,0,0-3.27,3,2.82,2.82,0,0,0,1,2.11,3.37,3.37,0,0,0,2.31.88h36.45a3.4,3.4,0,0,0,2.32-.88,2.84,2.84,0,0,0,1-2.14A3.15,3.15,0,0,0,666.78,345.16Z"/><path class="cls-1" d="M44.1,378.75v0a1.48,1.48,0,0,0-1.62-1.32l-33,3.47a1.48,1.48,0,0,0-1.31,1.63v0a1.48,1.48,0,0,0,1.63,1.32l33-3.47A1.49,1.49,0,0,0,44.1,378.75Z"/><path class="cls-1" d="M625.87,317.57v0a1.47,1.47,0,0,0,1.62,1.32l33-3.47a1.48,1.48,0,0,0,1.32-1.63v0a1.48,1.48,0,0,0-1.63-1.32l-33,3.47A1.48,1.48,0,0,0,625.87,317.57Z"/><path class="cls-1" d="M621.12,287.33v0a1.47,1.47,0,0,0,1.75,1.14l32.44-6.9a1.48,1.48,0,0,0,1.14-1.76v0a1.48,1.48,0,0,0-1.76-1.14l-32.44,6.89A1.48,1.48,0,0,0,621.12,287.33Z"/><path class="cls-1" d="M48.85,409v0a1.47,1.47,0,0,0-1.75-1.14l-32.44,6.89a1.48,1.48,0,0,0-1.14,1.76v0a1.48,1.48,0,0,0,1.76,1.14l32.44-6.9A1.48,1.48,0,0,0,48.85,409Z"/><path class="cls-1" d="M23,442.64H56.15a1.48,1.48,0,0,1,1.48,1.48v0a1.48,1.48,0,0,1-1.48,1.48H23a1.48,1.48,0,0,1-1.48-1.48v0A1.49,1.49,0,0,1,23,442.64Z" transform="translate(-135.84 34.2) rotate(-18.07)"/><path class="cls-1" d="M613.22,257.74v0a1.48,1.48,0,0,0,1.86,1l31.52-10.24a1.48,1.48,0,0,0,.95-1.87v0a1.48,1.48,0,0,0-1.87-1l-31.51,10.24A1.48,1.48,0,0,0,613.22,257.74Z"/><path class="cls-1" d="M602.25,229.15h0a1.49,1.49,0,0,0,2,.77l30.24-13.46a1.51,1.51,0,0,0,.76-2h0a1.49,1.49,0,0,0-2-.76L603,227.18A1.5,1.5,0,0,0,602.25,229.15Z"/><path class="cls-1" d="M67.72,467.17v0a1.48,1.48,0,0,0-2-.75L35.48,479.86a1.49,1.49,0,0,0-.75,2l0,0a1.48,1.48,0,0,0,2,.75L67,469.13A1.49,1.49,0,0,0,67.72,467.17Z"/><path class="cls-1" d="M587.05,202.65a3,3,0,0,0,1.81,1.39,3,3,0,0,0,2.26-.3l28.71-16.58a3,3,0,0,0,1.07-4.1h0a3,3,0,0,0-2.76-1.49,3,3,0,0,0-1.37.44l-28.65,16.54A3,3,0,0,0,587.05,202.65Z"/><path class="cls-1" d="M82.92,493.67a3,3,0,0,0-4.07-1.1L50.14,509.15a3,3,0,0,0-1.09,4.07l0,0a3,3,0,0,0,4.07,1.09l28.71-16.57A3,3,0,0,0,82.92,493.67Z"/><path class="cls-1" d="M571.65,176.23h0a1.5,1.5,0,0,0,2.08.32l26.81-19.48a1.49,1.49,0,0,0,.33-2.09h0a1.49,1.49,0,0,0-2.09-.33L572,174.12A1.5,1.5,0,0,0,571.65,176.23Z"/><path class="cls-1" d="M98.33,520.1v0a1.49,1.49,0,0,0-2.07-.33l-26.84,19.5a1.49,1.49,0,0,0-.33,2.07l0,0a1.47,1.47,0,0,0,2.06.33L98,522.18A1.48,1.48,0,0,0,98.33,520.1Z"/><path class="cls-1" d="M117.63,543.89l0,0a1.48,1.48,0,0,0-2.1-.12L90.84,566a1.47,1.47,0,0,0-.11,2.09l0,0a1.49,1.49,0,0,0,2.09.11L117.52,546A1.47,1.47,0,0,0,117.63,543.89Z"/><path class="cls-1" d="M552.34,152.43h0a1.5,1.5,0,0,0,2.13.12l24.64-22.19a1.49,1.49,0,0,0,.11-2.12h0a1.5,1.5,0,0,0-2.11-.11l-24.65,22.19A1.51,1.51,0,0,0,552.34,152.43Z"/><rect class="cls-1" x="109.09" y="577.46" width="36.17" height="3" rx="1.48" transform="translate(-388.17 286.07) rotate(-48)"/><path class="cls-1" d="M530.7,130.8a1.5,1.5,0,0,0,2.11-.11L555,106a1.51,1.51,0,0,0-.11-2.12,1.49,1.49,0,0,0-2.12.11l-22.2,24.65a1.5,1.5,0,0,0,.12,2.12Z"/><path class="cls-1" d="M507,111.6h0a1.54,1.54,0,0,0,2-.41l19.48-26.82a1.48,1.48,0,0,0-.44-2.17h0a1.52,1.52,0,0,0-2,.4l-19.49,26.82A1.47,1.47,0,0,0,507,111.6Z"/><path class="cls-1" d="M163.07,584.8l0,0a1.48,1.48,0,0,0-2.07.33L141.46,612a1.49,1.49,0,0,0,.33,2.07l0,0a1.49,1.49,0,0,0,2.07-.33l19.51-26.86A1.47,1.47,0,0,0,163.07,584.8Z"/><path class="cls-1" d="M480.47,96.11a3,3,0,0,0,1.52.42,2.91,2.91,0,0,0,.77-.1,3,3,0,0,0,1.83-1.4l16.57-28.7a3,3,0,0,0-1.1-4.1h0a3,3,0,0,0-4.09,1.1L479.4,92A3,3,0,0,0,480.47,96.11Z"/><path class="cls-1" d="M189.48,600.19a3,3,0,0,0-4.09,1.08L168.8,630a3,3,0,0,0,1.09,4.07l.75-1.3-.72,1.32a2.92,2.92,0,0,0,1.49.4,2.86,2.86,0,0,0,.77-.1A3,3,0,0,0,174,633l16.59-28.73A3,3,0,0,0,189.48,600.19Z"/><path class="cls-1" d="M454,80.9h0a1.5,1.5,0,0,0,2-.76l13.46-30.25a1.5,1.5,0,0,0-.76-2h0a1.51,1.51,0,0,0-2,.76L453.21,78.92A1.5,1.5,0,0,0,454,80.9Z"/><path class="cls-1" d="M216,615.42l0,0a1.5,1.5,0,0,0-2,.75l-13.48,30.29a1.48,1.48,0,0,0,.75,1.95l0,0a1.49,1.49,0,0,0,2-.75l13.48-30.29A1.46,1.46,0,0,0,216,615.42Z"/><path class="cls-1" d="M244.59,626.4h0a1.5,1.5,0,0,0-1.87,1l-10.24,31.51a1.48,1.48,0,0,0,1,1.86h0a1.48,1.48,0,0,0,1.87-1l10.24-31.51A1.49,1.49,0,0,0,244.59,626.4Z"/><path class="cls-1" d="M425.4,69.92h0a1.5,1.5,0,0,0,1.88-1l10.23-31.47a1.51,1.51,0,0,0-1-1.89h0a1.49,1.49,0,0,0-1.89,1L424.43,68A1.51,1.51,0,0,0,425.4,69.92Z"/><path class="cls-1" d="M395.8,62h0a1.5,1.5,0,0,0,1.79-1.15l6.88-32.38a1.5,1.5,0,0,0-1.15-1.78h0a1.5,1.5,0,0,0-1.78,1.16l-6.89,32.38A1.5,1.5,0,0,0,395.8,62Z"/><path class="cls-1" d="M274.18,634.32h0a1.48,1.48,0,0,0-1.77,1.14l-6.89,32.41a1.48,1.48,0,0,0,1.14,1.76h0a1.48,1.48,0,0,0,1.76-1.14l6.89-32.42A1.49,1.49,0,0,0,274.18,634.32Z"/><path class="cls-1" d="M304.43,639.09h0a1.49,1.49,0,0,0-1.64,1.32l-3.47,33a1.48,1.48,0,0,0,1.32,1.63h0a1.5,1.5,0,0,0,1.63-1.32l3.46-33A1.47,1.47,0,0,0,304.43,639.09Z"/><path class="cls-1" d="M365.55,57.23h0a1.51,1.51,0,0,0,1.66-1.34L370.67,23a1.5,1.5,0,0,0-1.33-1.65h0a1.5,1.5,0,0,0-1.65,1.34l-3.46,32.94A1.49,1.49,0,0,0,365.55,57.23Z"/><path class="cls-2" d="M335,0h0a3,3,0,0,0-3,3V53.19a3,3,0,0,0,3,3h0a2.93,2.93,0,0,0,2.1-.88,3,3,0,0,0,.87-2.1V3A3,3,0,0,0,335,0Z"/><path class="cls-1" d="M335,641.23h0a2.82,2.82,0,0,0-2.1,1,3.39,3.39,0,0,0-.88,2.31V681a3.14,3.14,0,0,0,3,3.27h0a3.13,3.13,0,0,0,3-3.27V644.5A3.14,3.14,0,0,0,335,641.23Z"/><path class="cls-1" d="M367.2,640.36a1.47,1.47,0,0,0-1.62-1.31h0a1.49,1.49,0,0,0-1.32,1.62l3.47,33a1.5,1.5,0,0,0,1.63,1.32h0a1.48,1.48,0,0,0,1.32-1.63Z"/><path class="cls-1" d="M302.28,22.64a1.5,1.5,0,1,0-3,.31l3.46,33a1.5,1.5,0,0,0,3-.31Z"/><path class="cls-1" d="M397.58,635.43a1.49,1.49,0,0,0-1.77-1.14h0a1.49,1.49,0,0,0-1.13,1.76l6.89,32.44a1.48,1.48,0,0,0,1.76,1.14h0a1.49,1.49,0,0,0,1.15-1.76Z"/><path class="cls-1" d="M268.43,27.84a1.5,1.5,0,1,0-2.93.62l6.88,32.4a1.5,1.5,0,1,0,2.94-.62Z"/><path class="cls-1" d="M427.27,627.34a1.48,1.48,0,0,0-1.87-1h0a1.49,1.49,0,0,0-.95,1.87l10.24,31.51a1.49,1.49,0,0,0,1.87,1l0,0a1.47,1.47,0,0,0,.95-1.86Z"/><path class="cls-1" d="M242.69,69a1.5,1.5,0,0,0,1.9,1h0a1.5,1.5,0,0,0,.95-1.89L235.31,36.55a1.5,1.5,0,0,0-2.85.93Z"/><path class="cls-1" d="M214,80.13a1.5,1.5,0,0,0,2.74-1.22L203.29,48.67a1.51,1.51,0,0,0-2-.76h0a1.49,1.49,0,0,0-.75,2Z"/><path class="cls-1" d="M456,616.17a1.47,1.47,0,0,0-1.95-.75h0a1.49,1.49,0,0,0-.76,2l13.48,30.27a1.48,1.48,0,0,0,1.95.75l0,0a1.48,1.48,0,0,0,.75-1.95Z"/><path class="cls-1" d="M185.36,95a3,3,0,0,0,4.1,1.1,3,3,0,0,0,1.1-4.09L174,63.33a3,3,0,1,0-5.19,3Z"/><path class="cls-1" d="M484.6,601.29a3,3,0,0,0-4.1-1.07,3,3,0,0,0-1.1,4.07L496,633a3,3,0,0,0,2.59,1.49,2.92,2.92,0,0,0,1.49-.4l-.75-1.3h0l.78,1.28a3,3,0,0,0,1.09-4.07Z"/><path class="cls-1" d="M509,585.13a1.48,1.48,0,0,0-2.08-.32l0,0a1.48,1.48,0,0,0-.32,2.06l19.5,26.84a1.49,1.49,0,0,0,2.07.33l0,0a1.49,1.49,0,0,0,.33-2.07Z"/><path class="cls-1" d="M161,111.19a1.49,1.49,0,0,0,2.08.32l0,0a1.49,1.49,0,0,0,.33-2.07l-19.5-26.84a1.48,1.48,0,0,0-2.07-.32l0,0a1.49,1.49,0,0,0-.33,2.07Z"/><path class="cls-1" d="M137.16,130.69a1.47,1.47,0,0,0,2.09.11l0,0a1.47,1.47,0,0,0,.11-2.09L117.18,104a1.51,1.51,0,0,0-2.1-.11l0,0A1.47,1.47,0,0,0,115,106Z"/><path class="cls-1" d="M532.81,565.62a1.48,1.48,0,0,0-2.09-.11l0,0a1.49,1.49,0,0,0-.11,2.1l22.21,24.67a1.49,1.49,0,0,0,2.1.11l0,0a1.47,1.47,0,0,0,.11-2.09Z"/></g></g></svg>