<svg xmlns="http://www.w3.org/2000/svg" width="61.256" height="61.256" viewBox="0 0 61.256 61.256"><path d="M13.576,158.743l-2.132,7.96-7.793.165a30.682,30.682,0,0,1-.226-28.6h0l6.938,1.272,3.039,6.9a18.279,18.279,0,0,0,.172,12.307Z" transform="translate(0 -121.726)" fill="#fff"/><path d="M291.048,208.176a30.616,30.616,0,0,1-10.918,29.607l0,0-8.739-.446-1.237-7.721a18.254,18.254,0,0,0,7.854-9.321H261.628V208.176h29.42Z" transform="translate(-230.327 -183.27)" fill="#fff"/><path d="M76.66,326.9l0,0a30.638,30.638,0,0,1-46.152-9.37l9.926-8.125a18.216,18.216,0,0,0,26.249,9.326Z" transform="translate(-26.859 -272.391)" fill="#fff"/><path d="M75.377,7.051l-9.922,8.123A18.213,18.213,0,0,0,38.6,24.711l-9.978-8.169h0A30.634,30.634,0,0,1,75.377,7.051Z" transform="translate(-25.199)" fill="#fff"/></svg>