<svg xmlns="http://www.w3.org/2000/svg" width="468.188" height="511.766" viewBox="0 0 468.188 511.766">
  <path id="Path_3" data-name="Path 3" d="M1579.844,929.963c-70.137,51.983-79.669,58.587-96.557,68.26-32.637,18.692-48.955,28.039-72.107,31.858-38,6.272-68.8-4.056-84.807-9.632-9.5-3.307-45.48-16.659-79.07-51.205a213.572,213.572,0,0,1-50.015-83.456c-11.212-35.29-9.271-61.957-5.748-110.352,3.642-50.057,6.581-90.448,30.676-135.961,7.786-14.7,21.577-40.169,49.355-64.044,36.106-31.034,73.6-40.255,100.324-46.5,34.859-8.146,57.085-13.34,82.417-2.538,31.82,13.57,46.873,43.14,49.019,47.5,8.474,17.232,3.195,19.936,11.961,44.164,8.735,24.146,20.862,40.491,36.566,61.324,5.133,6.811,12.767,16.526,39.248,45.376,52.184,56.856,58,57.761,62.649,73.138,11.547,38.185-11.34,75.5-15.07,81.578C1631.167,891.733,1624.949,896.532,1579.844,929.963Z" transform="translate(-1188.794 -520.272)" fill="#fff" opacity="0.05"/>
</svg>
