<svg xmlns="http://www.w3.org/2000/svg" width="571.014" height="540.279" viewBox="0 0 571.014 540.279">
  <g id="MainLogoBack" transform="translate(-1115.651 -520.272)">
    <path id="Path_2" data-name="Path 2" d="M1601.17,889.536c-25.45,10.214-29.423,5.813-51.08,14.078-23.88,9.112-38.958,22.06-65.292,44.677-8.106,6.961-20.746,19.2-46.024,43.672-29.485,28.547-36.791,36.415-52.292,41.365-4.984,1.593-24.006,7.094-45.634.621-19.987-5.982-31.979-19.133-43.864-32.842-47.286-54.542-74.345-95.361-74.345-95.361-30.628-46.2-45.942-69.307-48.819-77.371-22.842-64.02-3.072-122.221,1.731-135.33,16.979-46.342,46.173-72.957,52.127-78.239,29.244-25.957,58.972-35.4,76.906-40.891,42.9-13.129,78.289-10.171,149.069-4.254,37.956,3.172,57.317,4.9,76.141,11.839,13.107,4.832,57.419,21.833,87.728,65.684,10.357,14.985,17.646,36.361,32.224,79.113,13.979,41,15.127,55.237,15.456,60.667,1.129,18.658,3.063,50.662-17.186,74.663C1636.4,875.4,1622,881.176,1601.17,889.536Z" transform="translate(11.382 10.659)" fill="#fff" opacity="0.03"/>
    <path id="Path_3" data-name="Path 3" d="M1579.844,929.963c-70.137,51.983-79.669,58.587-96.557,68.26-32.637,18.692-48.955,28.039-72.107,31.858-38,6.272-68.8-4.056-84.807-9.632-9.5-3.307-45.48-16.659-79.07-51.205a213.572,213.572,0,0,1-50.015-83.456c-11.212-35.29-9.271-61.957-5.748-110.352,3.642-50.057,6.581-90.448,30.676-135.961,7.786-14.7,21.577-40.169,49.355-64.044,36.106-31.034,73.6-40.255,100.324-46.5,34.859-8.146,57.085-13.34,82.417-2.538,31.82,13.57,46.873,43.14,49.019,47.5,8.474,17.232,3.195,19.936,11.961,44.164,8.735,24.146,20.862,40.491,36.566,61.324,5.133,6.811,12.767,16.526,39.248,45.376,52.184,56.856,58,57.761,62.649,73.138,11.547,38.185-11.34,75.5-15.07,81.578C1631.167,891.733,1624.949,896.532,1579.844,929.963Z" transform="translate(17.573)" fill="#fff" opacity="0.03"/>
    <path id="Path_4" data-name="Path 4" d="M1516.964,1053.12a251.442,251.442,0,0,1-63.8,5.958c-29.968-.9-50.488-6.147-90.427-16.364-25.694-6.573-47.983-12.365-76.779-24.1-23.5-9.578-41.767-17.022-63.131-31.837a247.328,247.328,0,0,1-62.1-62.628c-6.439-9.355-32.077-47.969-41.52-105.853-7.588-46.508-.9-82.054.6-89.606,5.738-28.831,16.767-84.254,54.534-99.441,12.417-4.993,27.279-5.458,52.366-6.242,21.424-.669,24.824,1.473,41.3.484a189.263,189.263,0,0,0,59.006-13.613c26.432-10.349,23.761-15.811,63.905-37.58,24.772-13.432,44.194-21.332,60.03-27.716,21.758-8.772,32.934-13.209,47.484-15.647,16.6-2.783,36.563-6.129,56.325,2.334,19.043,8.155,28.548,23.267,40.909,43.534,14.8,24.268,15.121,34.6,34.34,86.029,11.383,30.459,12.282,29.544,27.344,69.707,12.132,32.356,18.271,48.859,21.814,64.728,4.627,20.726,9.788,43.846,6.416,72.555-5.5,46.8-30.234,79.149-43.287,96.22-14.232,18.614-27.319,29.731-53.5,51.965-14.874,12.636-26.239,20.9-41.591,27.635C1535.195,1048.912,1525.454,1051.185,1516.964,1053.12Z" transform="translate(0 1.346)" fill="#fff" opacity="0.03"/>
  </g>
</svg>
