<svg xmlns="http://www.w3.org/2000/svg" width="502.814" height="472.389" viewBox="0 0 502.814 472.389">
  <path id="Path_2" data-name="Path 2" d="M1601.17,889.536c-25.45,10.214-29.423,5.813-51.08,14.078-23.88,9.112-38.958,22.06-65.292,44.677-8.106,6.961-20.746,19.2-46.024,43.672-29.485,28.547-36.791,36.415-52.292,41.365-4.984,1.593-24.006,7.094-45.634.621-19.987-5.982-31.979-19.133-43.864-32.842-47.286-54.542-74.345-95.361-74.345-95.361-30.628-46.2-45.942-69.307-48.819-77.371-22.842-64.02-3.072-122.221,1.731-135.33,16.979-46.342,46.173-72.957,52.127-78.239,29.244-25.957,58.972-35.4,76.906-40.891,42.9-13.129,78.289-10.171,149.069-4.254,37.956,3.172,57.317,4.9,76.141,11.839,13.107,4.832,57.419,21.833,87.728,65.684,10.357,14.985,17.646,36.361,32.224,79.113,13.979,41,15.127,55.237,15.456,60.667,1.129,18.658,3.063,50.662-17.186,74.663C1636.4,875.4,1622,881.176,1601.17,889.536Z" transform="translate(-1163.027 -564.636)" fill="#fff" opacity="0.05"/>
</svg>
