<svg xmlns="http://www.w3.org/2000/svg" width="571.014" height="533.332" viewBox="0 0 571.014 533.332">
  <path id="Path_4" data-name="Path 4" d="M1516.964,1053.12a251.442,251.442,0,0,1-63.8,5.958c-29.968-.9-50.488-6.147-90.427-16.364-25.694-6.573-47.983-12.365-76.779-24.1-23.5-9.578-41.767-17.022-63.131-31.837a247.328,247.328,0,0,1-62.1-62.628c-6.439-9.355-32.077-47.969-41.52-105.853-7.588-46.508-.9-82.054.6-89.606,5.738-28.831,16.767-84.254,54.534-99.441,12.417-4.993,27.279-5.458,52.366-6.242,21.424-.669,24.824,1.473,41.3.484a189.263,189.263,0,0,0,59.006-13.613c26.432-10.349,23.761-15.811,63.905-37.58,24.772-13.432,44.194-21.332,60.03-27.716,21.758-8.772,32.934-13.209,47.484-15.647,16.6-2.783,36.563-6.129,56.325,2.334,19.043,8.155,28.548,23.267,40.909,43.534,14.8,24.268,15.121,34.6,34.34,86.029,11.383,30.459,12.282,29.544,27.344,69.707,12.132,32.356,18.271,48.859,21.814,64.728,4.627,20.726,9.788,43.846,6.416,72.555-5.5,46.8-30.234,79.149-43.287,96.22-14.232,18.614-27.319,29.731-53.5,51.965-14.874,12.636-26.239,20.9-41.591,27.635C1535.195,1048.912,1525.454,1051.185,1516.964,1053.12Z" transform="translate(-1115.651 -525.874)" fill="#fff" opacity="0.05"/>
</svg>
