<svg id="TopLogo" xmlns="http://www.w3.org/2000/svg" width="176.043" height="69.006" viewBox="0 0 176.043 69.006">
  <path id="Path_7" data-name="Path 7" d="M-1362.425,1709.755l-38.63,67.673h38.63l9.18-16.849h-18.906l18.906-33.838Z" transform="translate(1401.055 -1709.755)" fill="#ff669f"/>
  <path id="Path_8" data-name="Path 8" d="M-1364.868,1741.646h19.141l18.9,33.836h-19.022Z" transform="translate(1403.263 -1707.809)" fill="#ff669f"/>
  <g id="Group_3" data-name="Group 3" transform="translate(71.025 4.136)">
    <path id="Path_9" data-name="Path 9" d="M-1334.114,1746.977a36.074,36.074,0,0,1,2.887-15.107,29.406,29.406,0,0,1,7.642-10.353,30.846,30.846,0,0,1,10.8-5.953,40.751,40.751,0,0,1,12.352-1.911,44.837,44.837,0,0,1,9.374.977,38.818,38.818,0,0,1,8.664,2.934v15.551a20.466,20.466,0,0,0-6.887-3.733,26.356,26.356,0,0,0-8.308-1.333,24.783,24.783,0,0,0-7.242,1.065,17.956,17.956,0,0,0-6.264,3.333,16.533,16.533,0,0,0-4.443,5.865,20.25,20.25,0,0,0-1.689,8.664,16.637,16.637,0,0,0,1.689,7.776,15.391,15.391,0,0,0,4.4,5.286,18.4,18.4,0,0,0,6.219,3.022,26.505,26.505,0,0,0,7.153.978,27.7,27.7,0,0,0,8.976-1.422,18.019,18.019,0,0,0,6.841-4v16a41.877,41.877,0,0,1-18.127,3.91,43.8,43.8,0,0,1-12.531-1.822,31.477,31.477,0,0,1-10.886-5.642,28.478,28.478,0,0,1-7.687-9.775A32.1,32.1,0,0,1-1334.114,1746.977Z" transform="translate(1334.114 -1713.653)" fill="#fff"/>
    <path id="Path_10" data-name="Path 10" d="M-1233.063,1714.91v14.218h-28.347v9.508h25.682v14.13h-25.682v10.13h28.881v14.218h-45.32v-62.2Z" transform="translate(1337.547 -1713.576)" fill="#fff"/>
  </g>
</svg>
