<svg xmlns="http://www.w3.org/2000/svg" width="158.524" height="62.139" viewBox="0 0 158.524 62.139">
  <g id="TopLogo" transform="translate(0 0)">
    <path id="Path_7" data-name="Path 7" d="M-1366.269,1709.755l-34.786,60.938h34.786l8.266-15.172h-17.024l17.024-30.47Z" transform="translate(1401.055 -1709.755)" fill="#ff669f"/>
    <path id="Path_8" data-name="Path 8" d="M-1364.868,1741.646h17.236l17.023,30.469h-17.129Z" transform="translate(1399.442 -1711.176)" fill="#ff669f"/>
    <g id="Group_3" data-name="Group 3" transform="translate(63.957 3.724)">
      <path id="Path_9" data-name="Path 9" d="M-1334.114,1743.661a32.484,32.484,0,0,1,2.6-13.6,26.479,26.479,0,0,1,6.882-9.323,27.78,27.78,0,0,1,9.722-5.361,36.7,36.7,0,0,1,11.123-1.721,40.372,40.372,0,0,1,8.441.88,34.952,34.952,0,0,1,7.8,2.642v14a18.428,18.428,0,0,0-6.2-3.361,23.734,23.734,0,0,0-7.481-1.2,22.319,22.319,0,0,0-6.522.959,16.17,16.17,0,0,0-5.641,3,14.89,14.89,0,0,0-4,5.282,18.235,18.235,0,0,0-1.521,7.8,14.981,14.981,0,0,0,1.521,7,13.858,13.858,0,0,0,3.961,4.76,16.572,16.572,0,0,0,5.6,2.721,23.867,23.867,0,0,0,6.441.881,24.939,24.939,0,0,0,8.083-1.28,16.225,16.225,0,0,0,6.161-3.6v14.4a37.71,37.71,0,0,1-16.323,3.521,39.446,39.446,0,0,1-11.284-1.64,28.344,28.344,0,0,1-9.8-5.081,25.642,25.642,0,0,1-6.922-8.8A28.908,28.908,0,0,1-1334.114,1743.661Z" transform="translate(1334.114 -1713.653)" fill="#fff"/>
      <path id="Path_10" data-name="Path 10" d="M-1237.52,1714.91v12.8h-25.526v8.562h23.126V1749h-23.126v9.121h26.007v12.8h-40.81V1714.91Z" transform="translate(1331.606 -1713.709)" fill="#fff"/>
    </g>
  </g>
</svg>
